<?xml version="1.0" encoding="UTF-8"?>
<svg version="1.1" viewBox="0 0 27 31" xmlns="http://www.w3.org/2000/svg">
<title>CAS Pre-Gold</title>
<desc>CAS Pre-Gold</desc>
<g fill="none" fill-rule="evenodd">
<polygon points="0 0 26.775 0 26.775 24.641 13.191 31 0 24.641" fill="#fff"/>
<path d="m13.652 5c0.92727 0.91091 1.9641 1.8772 2.8618 2.8191l-1.0493 1.3725v0.067532l2.7813 1.2623 1.8795-1.311-1.1338-1.2806v-0.092412c1.1638-0.83729 2.1641-1.6431 3.292-2.4123l-0.54566 5.7361h-16.234l-0.54516-5.7361c1.1273 0.76925 2.1276 1.5751 3.292 2.4123v0.092412l-1.1338 1.2806 1.8795 1.311 2.7808-1.2623v-0.067532l-1.0488-1.3725c0.89726-0.94189 1.9341-1.9081 2.8618-2.8191h0.062018zm7.9747 7.5486l-0.16405 1.9117-6.0097-0.0025388 0.0020006 6.6049 2.9268-0.019295c0.65269-0.0010155 1.3399-0.69867 1.2003-1.1567-0.15755-0.66516-0.74572-1.1079-1.2909-1.4405 0.10903 0 2.1156-1.5019 3.0554-2.1478-0.042512 0.4123-0.71571 5.8103-0.72171 5.8966l-6.9355 2.6769h-0.11053l-6.936-2.6769c-0.0060017-0.086318-0.6787-5.4843-0.72121-5.8966 0.93977 0.64587 2.9464 2.1478 3.0554 2.1478-0.54566 0.33258-1.1333 0.77534-1.2914 1.4405-0.13904 0.458 0.54816 1.1557 1.2003 1.1567l2.9273 0.019295 0.0015004-6.6049-6.0092 0.0025388-0.16405-1.9117h15.985z" fill="#15264C"/>
</g>
</svg>
