<?xml version="1.0" encoding="UTF-8"?>
<svg width="28px" height="31px" viewBox="0 0 28 31" version="1.1" xmlns="http://www.w3.org/2000/svg" xmlns:xlink="http://www.w3.org/1999/xlink">
    <!-- Generator: Sketch 48.2 (47327) - http://www.bohemiancoding.com/sketch -->
    <title>Combined-Shape</title>
    <desc>Created with Sketch.</desc>
    <defs></defs>
    <g id="Artboard" stroke="none" stroke-width="1" fill="none" fill-rule="evenodd" transform="translate(-53.000000, -31.000000)">
        <path d="M66.6419992,31.299236 C66.8047269,31.1618405 67.0130182,30.8430828 67.2278187,31.0925931 C68.723828,32.5357961 70.2632313,33.9350325 71.7039132,35.4364913 C71.1289423,36.1795265 70.5387834,36.9104709 69.974661,37.6612002 C70.2339403,37.8656448 70.5528865,37.9656688 70.8490508,38.1019652 C72.0781867,38.6438533 73.3105773,39.1769481 74.5375436,39.724332 C75.5442852,39.0164701 76.5716389,38.3371864 77.5848896,37.6370186 C76.9752034,36.9192642 76.309105,36.2509722 75.7254552,35.5123336 C77.4764045,34.2197161 79.1991476,32.8831321 81,31.6608612 C80.7721813,34.6835636 80.4456412,37.699671 80.1668346,40.7190759 C71.4164277,40.7157784 62.6671058,40.7223734 53.9177838,40.7157784 C53.6161953,37.6853818 53.3580008,34.6472911 53,31.6234896 C54.8496707,32.8402647 56.577838,34.2318069 58.381945,35.5145319 C57.7690043,36.2322864 57.1354514,36.9324542 56.5008136,37.6293245 C57.516234,38.3305914 58.5403332,39.0175692 59.5557536,39.717737 C61.0832236,39.049445 62.6117784,38.3833513 64.1359938,37.706266 C63.581635,36.9225617 62.9611003,36.1905181 62.3850446,35.4254996 C63.7573809,34.0009824 65.2306083,32.681985 66.6419992,31.299236 Z M54.1141418,42.4073926 C62.7246029,42.4040951 71.3339791,42.4073926 79.9433553,42.4051943 C79.8674157,43.3955415 79.7676095,44.3836904 79.7025184,45.3740376 C76.4653235,45.3828309 73.2281286,45.3751368 69.9920186,45.3784343 C69.9909337,48.891364 69.9931034,52.405393 69.9909337,55.9183228 C71.3871368,55.9139261 72.7833398,55.9304136 74.1795428,55.9106286 C74.5798528,55.8633645 75.007284,55.9578927 75.3804727,55.7666381 C76.018365,55.5171277 76.6063541,54.9653471 76.7278574,54.2640802 C76.5521116,53.09347 75.5323518,52.3350465 74.6015498,51.7601834 C76.2733049,50.688498 77.8843084,49.5167886 79.5029059,48.3615667 C79.1036807,51.483194 78.7424254,54.6081187 78.3475397,57.7297459 C74.5755134,59.1498664 70.8002325,60.5655903 67.0347152,62 C63.2822162,60.543607 59.5004262,59.1597589 55.7414181,57.7198534 C55.3595506,54.603722 54.9787679,51.4864914 54.5979853,48.3692609 C56.2089888,49.518987 57.8167377,50.6775064 59.4743898,51.7568859 C58.6618365,52.2844849 57.7874467,52.8846287 57.4641612,53.8562901 C57.2124758,54.4201615 57.5834948,55.0323962 58.0250291,55.3709388 C58.396048,55.6413333 58.818055,55.9205211 59.2953894,55.8886453 C60.9020535,55.9490994 62.5098024,55.9062319 64.1175513,55.9194219 C64.1132119,52.405393 64.1218907,48.8924632 64.1132119,45.3795334 C60.8749322,45.3751368 57.6377373,45.3795334 54.4005424,45.3773351 C54.3039907,44.3869879 54.2139481,43.3966406 54.1141418,42.4073926 Z" id="Combined-Shape" fill="#0097fe" fill-rule="nonzero"></path>
    </g>
</svg>
